<svg width="276" height="323" viewBox="0 0 276 323" fill="none" xmlns="http://www.w3.org/2000/svg">
<path d="M1 322V2L10.116 15.8765L19.2319 9.56899L33.0361 15.8765L46.8403 2L61.1654 15.8765L75.4905 9.56899L87.9924 15.8765L100.494 2L116.382 15.8765L132.27 9.56899L147.376 15.8765L162.483 2L176.287 15.8765L190.091 9.56899L204.416 15.8765L218.741 2L229.941 15.8765L241.141 9.56899L258.07 15.8765L275 2V322H1Z" fill="#A46C2B"/>
<path d="M10.116 15.8765L19.2319 29.753L33.0361 15.8765M10.116 15.8765L1 2V322H275V2L258.07 15.8765M10.116 15.8765L19.2319 9.56899L33.0361 15.8765M33.0361 15.8765L46.8403 2L61.1654 15.8765M61.1654 15.8765L75.4905 29.753L87.9924 15.8765M61.1654 15.8765L75.4905 9.56899L87.9924 15.8765M87.9924 15.8765L100.494 2L116.382 15.8765M116.382 15.8765L132.27 29.753L147.376 15.8765M116.382 15.8765L132.27 9.56899L147.376 15.8765M147.376 15.8765L162.483 2L176.287 15.8765M176.287 15.8765L190.091 29.753L204.416 15.8765M176.287 15.8765L190.091 9.56899L204.416 15.8765M204.416 15.8765L218.741 2L229.941 15.8765M229.941 15.8765L241.141 29.753L258.07 15.8765M229.941 15.8765L241.141 9.56899L258.07 15.8765" stroke="black"/>
</svg>
